<svg width="70" height="12" viewBox="0 0 70 12" fill="none" xmlns="http://www.w3.org/2000/svg">
<path d="M0.876 9V0.599999H3.312L5.148 8.136H5.34L7.176 0.599999H9.612V9H8.352V1.512H8.16L6.336 9H4.152L2.328 1.512H2.136V9H0.876ZM14.1723 9.168C13.5803 9.168 13.0523 9.048 12.5883 8.808C12.1323 8.56 11.7723 8.208 11.5083 7.752C11.2443 7.296 11.1123 6.756 11.1123 6.132V5.952C11.1123 5.328 11.2443 4.792 11.5083 4.344C11.7723 3.888 12.1323 3.536 12.5883 3.288C13.0523 3.04 13.5803 2.916 14.1723 2.916C14.7643 2.916 15.2923 3.04 15.7563 3.288C16.2203 3.536 16.5843 3.888 16.8483 4.344C17.1123 4.792 17.2443 5.328 17.2443 5.952V6.132C17.2443 6.756 17.1123 7.296 16.8483 7.752C16.5843 8.208 16.2203 8.56 15.7563 8.808C15.2923 9.048 14.7643 9.168 14.1723 9.168ZM14.1723 8.064C14.7163 8.064 15.1563 7.892 15.4923 7.548C15.8363 7.196 16.0083 6.712 16.0083 6.096V5.988C16.0083 5.372 15.8403 4.892 15.5043 4.548C15.1683 4.196 14.7243 4.02 14.1723 4.02C13.6363 4.02 13.1963 4.196 12.8523 4.548C12.5163 4.892 12.3483 5.372 12.3483 5.988V6.096C12.3483 6.712 12.5163 7.196 12.8523 7.548C13.1963 7.892 13.6363 8.064 14.1723 8.064ZM18.7831 9V3.084H19.9951V3.972H20.1871C20.2991 3.732 20.4991 3.508 20.7871 3.3C21.0751 3.092 21.5031 2.988 22.0711 2.988C22.5191 2.988 22.9151 3.088 23.2591 3.288C23.6111 3.488 23.8871 3.772 24.0871 4.14C24.2871 4.5 24.3871 4.936 24.3871 5.448V9H23.1511V5.544C23.1511 5.032 23.0231 4.656 22.7671 4.416C22.5111 4.168 22.1591 4.044 21.7111 4.044C21.1991 4.044 20.7871 4.212 20.4751 4.548C20.1711 4.884 20.0191 5.372 20.0191 6.012V9H18.7831ZM41.1885 9V0.599999H44.7165C45.2365 0.599999 45.6925 0.691999 46.0845 0.875999C46.4845 1.052 46.7925 1.308 47.0085 1.644C47.2325 1.98 47.3445 2.38 47.3445 2.844V2.976C47.3445 3.504 47.2165 3.928 46.9605 4.248C46.7125 4.56 46.4085 4.78 46.0485 4.908V5.1C46.3525 5.116 46.5965 5.22 46.7805 5.412C46.9645 5.596 47.0565 5.864 47.0565 6.216V9H45.7485V6.396C45.7485 6.18 45.6925 6.008 45.5805 5.88C45.4685 5.752 45.2885 5.688 45.0405 5.688H42.4845V9H41.1885ZM42.4845 4.512H44.5725C45.0365 4.512 45.3965 4.396 45.6525 4.164C45.9085 3.924 46.0365 3.6 46.0365 3.192V3.096C46.0365 2.688 45.9085 2.368 45.6525 2.136C45.4045 1.896 45.0445 1.776 44.5725 1.776H42.4845V4.512ZM51.5185 9.168C50.9185 9.168 50.3945 9.044 49.9465 8.796C49.4985 8.54 49.1465 8.184 48.8905 7.728C48.6425 7.264 48.5185 6.728 48.5185 6.12V5.976C48.5185 5.36 48.6425 4.824 48.8905 4.368C49.1385 3.904 49.4825 3.548 49.9225 3.3C50.3705 3.044 50.8865 2.916 51.4705 2.916C52.0385 2.916 52.5345 3.044 52.9585 3.3C53.3905 3.548 53.7265 3.896 53.9665 4.344C54.2065 4.792 54.3265 5.316 54.3265 5.916V6.384H49.7785C49.7945 6.904 49.9665 7.32 50.2945 7.632C50.6305 7.936 51.0465 8.088 51.5425 8.088C52.0065 8.088 52.3545 7.984 52.5865 7.776C52.8265 7.568 53.0105 7.328 53.1385 7.056L54.1585 7.584C54.0465 7.808 53.8825 8.044 53.6665 8.292C53.4585 8.54 53.1825 8.748 52.8385 8.916C52.4945 9.084 52.0545 9.168 51.5185 9.168ZM49.7905 5.436H53.0665C53.0345 4.988 52.8745 4.64 52.5865 4.392C52.2985 4.136 51.9225 4.008 51.4585 4.008C50.9945 4.008 50.6145 4.136 50.3185 4.392C50.0305 4.64 49.8545 4.988 49.7905 5.436ZM55.8143 11.4V3.084H57.0263V3.936H57.2183C57.3703 3.672 57.5983 3.436 57.9023 3.228C58.2143 3.02 58.6583 2.916 59.2343 2.916C59.7303 2.916 60.1823 3.036 60.5903 3.276C61.0063 3.516 61.3383 3.864 61.5863 4.32C61.8423 4.768 61.9703 5.312 61.9703 5.952V6.132C61.9703 6.772 61.8463 7.32 61.5983 7.776C61.3503 8.224 61.0183 8.568 60.6023 8.808C60.1863 9.048 59.7303 9.168 59.2343 9.168C58.8503 9.168 58.5263 9.12 58.2623 9.024C57.9983 8.928 57.7863 8.808 57.6263 8.664C57.4663 8.512 57.3383 8.356 57.2423 8.196H57.0503V11.4H55.8143ZM58.8743 8.088C59.4183 8.088 59.8623 7.916 60.2063 7.572C60.5503 7.228 60.7223 6.736 60.7223 6.096V5.988C60.7223 5.356 60.5463 4.868 60.1943 4.524C59.8503 4.18 59.4103 4.008 58.8743 4.008C58.3463 4.008 57.9063 4.18 57.5543 4.524C57.2103 4.868 57.0383 5.356 57.0383 5.988V6.096C57.0383 6.736 57.2103 7.228 57.5543 7.572C57.9063 7.916 58.3463 8.088 58.8743 8.088ZM66.2738 9.168C65.6818 9.168 65.1538 9.048 64.6898 8.808C64.2338 8.56 63.8738 8.208 63.6098 7.752C63.3458 7.296 63.2138 6.756 63.2138 6.132V5.952C63.2138 5.328 63.3458 4.792 63.6098 4.344C63.8738 3.888 64.2338 3.536 64.6898 3.288C65.1538 3.04 65.6818 2.916 66.2738 2.916C66.8658 2.916 67.3938 3.04 67.8578 3.288C68.3218 3.536 68.6858 3.888 68.9498 4.344C69.2138 4.792 69.3458 5.328 69.3458 5.952V6.132C69.3458 6.756 69.2138 7.296 68.9498 7.752C68.6858 8.208 68.3218 8.56 67.8578 8.808C67.3938 9.048 66.8658 9.168 66.2738 9.168ZM66.2738 8.064C66.8178 8.064 67.2578 7.892 67.5938 7.548C67.9378 7.196 68.1098 6.712 68.1098 6.096V5.988C68.1098 5.372 67.9418 4.892 67.6058 4.548C67.2698 4.196 66.8258 4.02 66.2738 4.02C65.7378 4.02 65.2978 4.196 64.9538 4.548C64.6178 4.892 64.4498 5.372 64.4498 5.988V6.096C64.4498 6.712 64.6178 7.196 64.9538 7.548C65.2978 7.892 65.7378 8.064 66.2738 8.064Z" fill="white"/>
<path d="M25.8779 6.072V5.892C25.8779 5.268 26.0019 4.736 26.2499 4.296C26.5059 3.856 26.8419 3.516 27.2579 3.276C27.6739 3.036 28.1299 2.916 28.6259 2.916C29.2019 2.916 29.6419 3.024 29.9459 3.24C30.2579 3.456 30.4859 3.688 30.6299 3.936H30.8219V3.084H32.0219V10.212C32.0219 10.572 31.9139 10.86 31.6979 11.076C31.4899 11.292 31.2019 11.4 30.8339 11.4H26.8499V10.32H30.4499C30.6819 10.32 30.7979 10.2 30.7979 9.96V8.076H30.6059C30.5179 8.22 30.3939 8.368 30.2339 8.52C30.0739 8.672 29.8619 8.796 29.5979 8.892C29.3419 8.988 29.0179 9.036 28.6259 9.036C28.1299 9.036 27.6699 8.92 27.2459 8.688C26.8299 8.448 26.4979 8.108 26.2499 7.668C26.0019 7.22 25.8779 6.688 25.8779 6.072ZM28.9619 7.956C29.4979 7.956 29.9379 7.788 30.2819 7.452C30.6339 7.108 30.8099 6.636 30.8099 6.036V5.928C30.8099 5.312 30.6379 4.84 30.2939 4.512C29.9499 4.176 29.5059 4.008 28.9619 4.008C28.4339 4.008 27.9939 4.176 27.6419 4.512C27.2979 4.84 27.1259 5.312 27.1259 5.928V6.036C27.1259 6.636 27.2979 7.108 27.6419 7.452C27.9939 7.788 28.4339 7.956 28.9619 7.956ZM36.6137 9.168C36.0217 9.168 35.4937 9.048 35.0297 8.808C34.5737 8.56 34.2137 8.208 33.9497 7.752C33.6857 7.296 33.5537 6.756 33.5537 6.132V5.952C33.5537 5.328 33.6857 4.792 33.9497 4.344C34.2137 3.888 34.5737 3.536 35.0297 3.288C35.4937 3.04 36.0217 2.916 36.6137 2.916C37.2057 2.916 37.7337 3.04 38.1977 3.288C38.6617 3.536 39.0257 3.888 39.2897 4.344C39.5537 4.792 39.6857 5.328 39.6857 5.952V6.132C39.6857 6.756 39.5537 7.296 39.2897 7.752C39.0257 8.208 38.6617 8.56 38.1977 8.808C37.7337 9.048 37.2057 9.168 36.6137 9.168ZM36.6137 8.064C37.1577 8.064 37.5977 7.892 37.9337 7.548C38.2777 7.196 38.4497 6.712 38.4497 6.096V5.988C38.4497 5.372 38.2817 4.892 37.9457 4.548C37.6097 4.196 37.1657 4.02 36.6137 4.02C36.0777 4.02 35.6377 4.196 35.2937 4.548C34.9577 4.892 34.7897 5.372 34.7897 5.988V6.096C34.7897 6.712 34.9577 7.196 35.2937 7.548C35.6377 7.892 36.0777 8.064 36.6137 8.064Z" fill="#1CC800"/>
</svg>
